<?xml version="1.0" standalone="no"?>
<!DOCTYPE svg PUBLIC "-//W3C//DTD SVG 20010904//EN"
 "http://www.w3.org/TR/2001/REC-SVG-20010904/DTD/svg10.dtd">
<svg version="1.0" xmlns="http://www.w3.org/2000/svg"
 width="600.000000pt" height="495.000000pt" viewBox="0 0 600.000000 495.000000"
 preserveAspectRatio="xMidYMid meet">
<metadata>
Created by potrace 1.16, written by Peter Selinger 2001-2019
</metadata>
<g transform="translate(0.000000,495.000000) scale(0.100000,-0.100000)"
fill="#000000" stroke="none">
<path d="M4317 4420 c-98 -16 -195 -49 -311 -108 -218 -111 -563 -362 -498
-362 5 0 76 31 158 70 273 126 410 159 594 142 161 -15 352 -105 464 -218 122
-123 229 -340 281 -570 22 -95 31 -410 16 -545 -26 -229 -110 -534 -225 -816
-108 -268 -346 -611 -564 -813 -281 -260 -658 -427 -922 -407 -139 11 -274 65
-451 183 -53 35 -99 64 -102 64 -16 0 -4 -24 54 -109 171 -255 453 -411 737
-411 161 0 390 66 582 167 515 271 733 516 1089 1220 114 225 220 555 263 818
31 187 7 749 -37 880 -91 268 -204 468 -331 584 -132 121 -228 169 -423 211
-102 23 -293 32 -374 20z m258 -30 c39 -6 128 -24 199 -42 121 -29 135 -35
205 -86 168 -124 238 -210 330 -404 111 -232 126 -287 146 -511 12 -140 16
-251 12 -385 -7 -259 -32 -394 -138 -717 -50 -153 -76 -213 -174 -400 -206
-390 -339 -591 -508 -763 -192 -196 -552 -411 -817 -489 -119 -35 -132 -37
-280 -37 -149 -1 -159 0 -250 31 -143 49 -239 110 -345 217 -49 51 -99 108
-110 127 l-19 34 29 -19 c17 -10 39 -26 50 -36 32 -27 85 -56 155 -85 190 -77
425 -73 645 10 108 41 270 129 375 203 227 161 497 483 663 792 78 145 187
441 241 655 57 226 70 335 70 570 1 191 -2 233 -21 317 -40 176 -115 359 -196
477 -164 240 -459 373 -754 340 -93 -10 -193 -40 -317 -95 -55 -24 -101 -42
-104 -40 -9 10 256 184 363 238 186 95 357 125 550 98z"/>
<path d="M3944 4049 c-130 -16 -211 -49 -352 -142 -100 -65 -372 -283 -372
-297 0 -12 209 -23 337 -18 123 4 162 18 349 129 85 50 118 63 210 84 215 49
324 26 537 -111 65 -42 97 -54 97 -36 0 18 -129 189 -173 229 -88 81 -257 146
-426 163 -113 11 -119 11 -207 -1z m231 -28 c92 -11 214 -49 298 -94 59 -31
154 -125 190 -186 l19 -32 -49 30 c-164 101 -280 131 -426 111 -138 -19 -208
-43 -333 -116 -192 -111 -200 -113 -406 -114 -102 0 -178 4 -178 9 0 15 187
167 295 240 201 135 366 177 590 152z"/>
<path d="M868 3403 c-33 -38 -378 -525 -378 -534 0 -5 176 -9 453 -9 l454 0 6
-716 c3 -394 8 -717 9 -718 2 0 143 0 313 2 l310 3 3 682 c2 375 5 700 8 722
l6 41 346 -4 347 -4 70 98 c39 53 121 167 184 253 62 86 116 162 119 170 3 7
-1 17 -9 22 -8 5 -497 9 -1120 9 -1041 0 -1107 -1 -1121 -17z m2210 -23 c-1
-5 -79 -115 -173 -244 l-170 -235 -356 -1 -356 0 -6 -197 c-4 -108 -7 -434 -7
-725 l0 -528 -287 2 -288 3 -3 713 c-1 391 -3 713 -5 714 -1 1 -202 5 -448 8
l-445 5 179 248 178 247 1095 0 c689 0 1094 -4 1092 -10z"/>
<path d="M3330 3138 c-168 -229 -197 -272 -187 -280 1 -1 154 -5 341 -8 l339
-5 -79 -61 c-44 -33 -170 -132 -282 -220 -111 -87 -234 -181 -271 -209 -146
-106 -312 -235 -461 -358 -140 -117 -158 -135 -186 -193 -37 -74 -59 -178 -50
-230 10 -49 67 -109 124 -128 26 -9 101 -24 167 -32 104 -14 215 -16 840 -11
l720 6 67 71 c37 39 87 101 112 138 63 95 166 295 166 322 l0 23 -540 -8
c-297 -4 -540 -5 -540 -2 0 3 84 69 188 148 103 79 250 193 327 254 77 62 270
212 429 335 158 123 297 237 307 254 29 46 69 181 69 230 0 78 -74 151 -198
196 -55 20 -79 21 -634 23 l-578 2 -190 -257z m1408 200 c51 -21 92 -46 121
-75 l44 -43 -5 -68 c-5 -67 -44 -180 -75 -214 -8 -9 -219 -175 -470 -370 -761
-591 -824 -641 -816 -647 4 -3 258 -3 563 0 305 3 557 4 559 3 6 -5 -109 -216
-157 -289 -26 -38 -74 -98 -107 -133 l-60 -62 -780 -3 c-617 -2 -793 1 -844
11 -161 33 -213 104 -178 240 31 117 62 166 151 234 45 35 149 116 231 180
199 157 322 253 675 528 162 127 297 235 298 240 2 7 -120 10 -348 10 -316 0
-352 2 -346 16 3 8 39 59 79 112 40 53 117 157 171 230 l98 132 560 0 559 0
77 -32z"/>
</g>
</svg>
